<?xml version="1.0"?>
<svg xmlns="http://www.w3.org/2000/svg" xmlns:xlink="http://www.w3.org/1999/xlink" xmlns:svgjs="http://svgjs.com/svgjs" version="1.1" width="512" height="512" x="0" y="0" viewBox="0 0 512 512" style="enable-background:new 0 0 512 512" xml:space="preserve" class=""><g><g xmlns="http://www.w3.org/2000/svg" id="outline"><path d="m80 216h16v-8h8v-16h-8v-8h-16v8h-8v16h8z" fill="#3786ff" data-original="#000000" style=""/><circle cx="176" cy="184" r="8" fill="#3786ff" data-original="#000000" style=""/><circle cx="160" cy="200" r="8" fill="#3786ff" data-original="#000000" style=""/><circle cx="192" cy="200" r="8" fill="#3786ff" data-original="#000000" style=""/><circle cx="176" cy="216" r="8" fill="#3786ff" data-original="#000000" style=""/><path d="m54.647 288a38.843 38.843 0 0 0 33.141-18.763l12.741-21.237h62.942l12.742 21.237a38.647 38.647 0 0 0 71.787-19.884v-2.118a38.846 38.846 0 0 0 -4.08-17.284l-30.684-61.368a29.835 29.835 0 0 0 -26.836-16.583h-108.8a29.835 29.835 0 0 0 -26.833 16.583l-30.687 61.368a38.839 38.839 0 0 0 -4.08 17.283v2.119a38.691 38.691 0 0 0 38.647 38.647zm-22.647-40.766a22.741 22.741 0 0 1 2.391-10.127l30.683-61.368a13.927 13.927 0 0 1 12.526-7.739h108.8a13.927 13.927 0 0 1 12.523 7.739l30.683 61.368a22.742 22.742 0 0 1 2.394 10.128v2.118a22.647 22.647 0 0 1 -42.067 11.652l-15.073-25.121a8 8 0 0 0 -6.86-3.884h-72a8 8 0 0 0 -6.86 3.884l-15.072 25.121a22.648 22.648 0 0 1 -42.068-11.652z" fill="#3786ff" data-original="#000000" style=""/><path d="m120 192h16v16h-16z" fill="#3786ff" data-original="#000000" style=""/><path d="m344 184h-16v8h-8v16h8v8h16v-8h8v-16h-8z" fill="#3786ff" data-original="#000000" style=""/><circle cx="424" cy="184" r="8" fill="#3786ff" data-original="#000000" style=""/><circle cx="408" cy="200" r="8" fill="#3786ff" data-original="#000000" style=""/><circle cx="440" cy="200" r="8" fill="#3786ff" data-original="#000000" style=""/><circle cx="424" cy="216" r="8" fill="#3786ff" data-original="#000000" style=""/><path d="m461.236 168.583a29.835 29.835 0 0 0 -26.836-16.583h-108.8a29.835 29.835 0 0 0 -26.833 16.583l-30.687 61.368a38.839 38.839 0 0 0 -4.08 17.283v2.119a38.648 38.648 0 0 0 71.788 19.884l12.741-21.237h62.942l12.742 21.237a38.647 38.647 0 0 0 71.787-19.884v-2.118a38.846 38.846 0 0 0 -4.08-17.284zm18.764 80.77a22.647 22.647 0 0 1 -42.067 11.652l-15.073-25.121a8 8 0 0 0 -6.86-3.884h-72a8 8 0 0 0 -6.86 3.884l-15.072 25.121a22.648 22.648 0 0 1 -42.068-11.652v-2.119a22.741 22.741 0 0 1 2.391-10.127l30.683-61.368a13.927 13.927 0 0 1 12.526-7.739h108.8a13.927 13.927 0 0 1 12.523 7.739l30.683 61.368a22.742 22.742 0 0 1 2.394 10.128z" fill="#3786ff" data-original="#000000" style=""/><path d="m368 192h16v16h-16z" fill="#3786ff" data-original="#000000" style=""/><path d="m424 408v-24h16a8 8 0 0 0 8-8v-64a8 8 0 0 0 -8-8h-368a8 8 0 0 0 -8 8v64a8 8 0 0 0 8 8h16v24a8 8 0 0 0 8 8h320a8 8 0 0 0 8-8zm-88-88h96v48h-96zm-256 48v-48h240v48zm328 32h-304v-16h304z" fill="#3786ff" data-original="#000000" style=""/><path d="m96 336h96v16h-96z" fill="#3786ff" data-original="#000000" style=""/><path d="m208 336h16v16h-16z" fill="#3786ff" data-original="#000000" style=""/><path d="m317.657 121.539a87.2 87.2 0 0 0 -123.314 0l11.314 11.315a71.193 71.193 0 0 1 100.686 0z" fill="#3786ff" data-original="#000000" style=""/><path d="m296.118 143.077a56.8 56.8 0 0 0 -80.236 0l11.312 11.315a40.785 40.785 0 0 1 57.612 0z" fill="#3786ff" data-original="#000000" style=""/><path d="m256 157.965a25.069 25.069 0 0 0 -17.841 7.389l11.315 11.315a9.227 9.227 0 0 1 13.052 0l11.315-11.315a25.069 25.069 0 0 0 -17.841-7.389z" fill="#3786ff" data-original="#000000" style=""/><path d="m384 336h16v16h-16z" fill="#3786ff" data-original="#000000" style=""/><path d="m352 336h16v16h-16z" fill="#3786ff" data-original="#000000" style=""/></g></g></svg>
